<svg id="Layer_12" data-name="Layer 12" xmlns="http://www.w3.org/2000/svg" xmlns:xlink="http://www.w3.org/1999/xlink" viewBox="0 0 183.61 183.61"><defs><style>.cls-1{opacity:0.22;fill:url(#linear-gradient);}.cls-2{fill:#27a6d5;}</style><linearGradient id="linear-gradient" y1="91.81" x2="183.61" y2="91.81" gradientUnits="userSpaceOnUse"><stop offset="0" stop-color="#55b99f"/><stop offset="0.43" stop-color="#ef7852"/><stop offset="0.54" stop-color="#ee7157"/><stop offset="0.7" stop-color="#ec5f64"/><stop offset="0.9" stop-color="#e9407a"/><stop offset="0.92" stop-color="#e83b7e"/></linearGradient></defs><rect class="cls-1" width="183.61" height="183.61"/><path class="cls-2" d="M298.1,631.5l-6.65,31H287a54.48,54.48,0,0,0-8.3-16,55.27,55.27,0,0,0-12.92-12.82A79.93,79.93,0,0,1,255.09,647a73.08,73.08,0,0,1-12.5,10.08,60.28,60.28,0,0,1-13.77,6.52,45.35,45.35,0,0,1-14,2.31l-1.13,0a2.12,2.12,0,0,1-1.82-3l.54-1.29a2.06,2.06,0,0,1,2.11-1.24c1.73.17,3.1.26,4.09.26q19.18,0,34.18-15a82.37,82.37,0,0,0,6.27-7.11,113.06,113.06,0,0,0,6.62-9.42q7.63-12,13-22.41L285.28,594q7.79-14.92,12-20.21t8.34-5.29a4.83,4.83,0,0,1,2.35.56,3.8,3.8,0,0,1,1.57,1.65,5.22,5.22,0,0,1,.56,2.41,17.46,17.46,0,0,1-.35,2.87c-.23,1.69-.37,2.6-.42,2.74l-10.72,50.36h5l-.49,2.38Zm-6.58,0H267.07l.28.21a76.35,76.35,0,0,1,10.72,9.81,82.93,82.93,0,0,1,8.75,12.05ZM269,629.12H292L302,581.49c.32-1.54.49-2.34.49-2.38a9,9,0,0,0,.42-2.53c0-1.16-.52-1.75-1.54-1.75-1.27,0-2.78,1.33-4.56,4s-4.86,8.12-9.24,16.39l-4,7.63q-2.52,4.56-2.73,5l-6.72,12.26Q269.87,627.8,269,629.12Z" transform="translate(-207.52 -541.42)"/><path class="cls-2" d="M331.84,680.18l-6.36,2L333.09,643l.68-3.37a24.25,24.25,0,0,0,.58-4.63q0-4.25-3.38-4.24-3.18,0-7.71,4.29a62.06,62.06,0,0,0-9.55,12.39,105.58,105.58,0,0,0-5.64,10,102.86,102.86,0,0,0-4.34,10.27q-2,5.44-3.81,12.48l-6,2,9.94-53.42,9.25-4-8.39,35q6.47-15,14.8-24.54t15-9.6q7.23,0,7.23,8.2a59.79,59.79,0,0,1-1.44,9.93l-3.19,14.37q9.36-17.94,15.82-25.31t12.82-7.38a7.39,7.39,0,0,1,5.6,2.12,8.47,8.47,0,0,1,2,6.08q0,3.18-1.93,11l-3,11.86-1,3.76a44.87,44.87,0,0,0-1.35,8.87,10.07,10.07,0,0,0,1.06,5,3.12,3.12,0,0,0,2.7,1.88q3.09,0,9.64-7.14l1.45,1.35-.87,1.06A86,86,0,0,1,372,680q-2.65,2.26-4.87,2.27a6,6,0,0,1-5.06-3A13.15,13.15,0,0,1,360,671.7a53.67,53.67,0,0,1,1.25-9.16l3.57-20,.58-3.47a25.51,25.51,0,0,0,.58-4.63,3.78,3.78,0,0,0-1.07-2.8,3.88,3.88,0,0,0-2.89-1.06,8.43,8.43,0,0,0-4.67,1.78,26.8,26.8,0,0,0-5.45,5.45,90.75,90.75,0,0,0-6.46,9.65,128.43,128.43,0,0,0-7.81,15.28A137.34,137.34,0,0,0,331.84,680.18Z" transform="translate(-207.52 -541.42)"/></svg>